<svg width="765" height="221" viewBox="0 0 765 221" fill="none" xmlns="http://www.w3.org/2000/svg">
<rect x="0.5" y="0.5" width="764" height="220" rx="32.5" fill="white" stroke="#0FC9D7"/>
<path d="M395.19 90V84.345L424.57 48.465L425.545 51.65H395.645V44.5H433.15V50.155L403.77 86.035L402.73 82.85H433.995V90H395.19ZM462.404 90V82.98L461.949 81.485V69.2C461.949 66.8167 461.234 64.975 459.804 63.675C458.374 62.3317 456.207 61.66 453.304 61.66C451.354 61.66 449.426 61.9633 447.519 62.57C445.656 63.1767 444.074 64.0217 442.774 65.105L439.589 59.19C441.452 57.76 443.662 56.6983 446.219 56.005C448.819 55.2683 451.506 54.9 454.279 54.9C459.306 54.9 463.184 56.1133 465.914 58.54C468.687 60.9233 470.074 64.6283 470.074 69.655V90H462.404ZM451.484 90.455C448.884 90.455 446.609 90.0217 444.659 89.155C442.709 88.245 441.192 87.01 440.109 85.45C439.069 83.8467 438.549 82.0483 438.549 80.055C438.549 78.105 439.004 76.35 439.914 74.79C440.867 73.23 442.406 71.995 444.529 71.085C446.652 70.175 449.469 69.72 452.979 69.72H463.054V75.115H453.564C450.791 75.115 448.927 75.57 447.974 76.48C447.021 77.3467 446.544 78.43 446.544 79.73C446.544 81.2033 447.129 82.3733 448.299 83.24C449.469 84.1067 451.094 84.54 453.174 84.54C455.167 84.54 456.944 84.085 458.504 83.175C460.107 82.265 461.256 80.9217 461.949 79.145L463.314 84.02C462.534 86.0567 461.126 87.6383 459.089 88.765C457.096 89.8917 454.561 90.455 451.484 90.455ZM499.741 90.455C496.925 90.455 494.346 89.805 492.006 88.505C489.71 87.205 487.868 85.255 486.481 82.655C485.138 80.0117 484.466 76.675 484.466 72.645C484.466 68.5717 485.116 65.235 486.416 62.635C487.76 60.035 489.58 58.1067 491.876 56.85C494.173 55.55 496.795 54.9 499.741 54.9C503.165 54.9 506.176 55.6367 508.776 57.11C511.42 58.5833 513.5 60.6417 515.016 63.285C516.576 65.9283 517.356 69.0483 517.356 72.645C517.356 76.2417 516.576 79.3833 515.016 82.07C513.5 84.7133 511.42 86.7717 508.776 88.245C506.176 89.7183 503.165 90.455 499.741 90.455ZM480.501 102.61V55.29H488.236V63.48L487.976 72.71L488.626 81.94V102.61H480.501ZM498.831 83.5C500.781 83.5 502.515 83.0667 504.031 82.2C505.591 81.3333 506.826 80.0767 507.736 78.43C508.646 76.7833 509.101 74.855 509.101 72.645C509.101 70.3917 508.646 68.4633 507.736 66.86C506.826 65.2133 505.591 63.9567 504.031 63.09C502.515 62.2233 500.781 61.79 498.831 61.79C496.881 61.79 495.126 62.2233 493.566 63.09C492.006 63.9567 490.771 65.2133 489.861 66.86C488.951 68.4633 488.496 70.3917 488.496 72.645C488.496 74.855 488.951 76.7833 489.861 78.43C490.771 80.0767 492.006 81.3333 493.566 82.2C495.126 83.0667 496.881 83.5 498.831 83.5ZM526.97 103.065C525.28 103.065 523.59 102.783 521.9 102.22C520.21 101.657 518.801 100.877 517.675 99.88L520.925 93.9C521.748 94.6367 522.68 95.2217 523.72 95.655C524.76 96.0883 525.821 96.305 526.905 96.305C528.378 96.305 529.57 95.9367 530.48 95.2C531.39 94.4633 532.235 93.2283 533.015 91.495L535.03 86.945L535.68 85.97L548.81 55.29H556.61L540.36 92.795C539.276 95.395 538.063 97.4533 536.72 98.97C535.42 100.487 533.946 101.548 532.3 102.155C530.696 102.762 528.92 103.065 526.97 103.065ZM534.12 91.235L518.455 55.29H526.905L539.645 85.255L534.12 91.235ZM575.705 90.455C571.892 90.455 568.945 89.48 566.865 87.53C564.785 85.5367 563.745 82.6117 563.745 78.755V47.62H571.87V78.56C571.87 80.2067 572.282 81.485 573.105 82.395C573.972 83.305 575.163 83.76 576.68 83.76C578.5 83.76 580.017 83.2833 581.23 82.33L583.505 88.115C582.552 88.895 581.382 89.48 579.995 89.87C578.608 90.26 577.178 90.455 575.705 90.455ZM558.025 62.05V55.55H581.165V62.05H558.025ZM611.574 90V82.98L611.119 81.485V69.2C611.119 66.8167 610.404 64.975 608.974 63.675C607.544 62.3317 605.377 61.66 602.474 61.66C600.524 61.66 598.596 61.9633 596.689 62.57C594.826 63.1767 593.244 64.0217 591.944 65.105L588.759 59.19C590.622 57.76 592.832 56.6983 595.389 56.005C597.989 55.2683 600.676 54.9 603.449 54.9C608.476 54.9 612.354 56.1133 615.084 58.54C617.857 60.9233 619.244 64.6283 619.244 69.655V90H611.574ZM600.654 90.455C598.054 90.455 595.779 90.0217 593.829 89.155C591.879 88.245 590.362 87.01 589.279 85.45C588.239 83.8467 587.719 82.0483 587.719 80.055C587.719 78.105 588.174 76.35 589.084 74.79C590.037 73.23 591.576 71.995 593.699 71.085C595.822 70.175 598.639 69.72 602.149 69.72H612.224V75.115H602.734C599.961 75.115 598.097 75.57 597.144 76.48C596.191 77.3467 595.714 78.43 595.714 79.73C595.714 81.2033 596.299 82.3733 597.469 83.24C598.639 84.1067 600.264 84.54 602.344 84.54C604.337 84.54 606.114 84.085 607.674 83.175C609.277 82.265 610.426 80.9217 611.119 79.145L612.484 84.02C611.704 86.0567 610.296 87.6383 608.259 88.765C606.266 89.8917 603.731 90.455 600.654 90.455ZM626.096 103.065C624.58 103.065 623.15 102.892 621.806 102.545C620.42 102.242 619.25 101.743 618.296 101.05L620.636 95.005C621.893 95.915 623.475 96.37 625.381 96.37C626.855 96.37 628.003 95.8933 628.826 94.94C629.65 94.03 630.061 92.665 630.061 90.845V55.29H638.186V90.65C638.186 94.4633 637.125 97.475 635.001 99.685C632.921 101.938 629.953 103.065 626.096 103.065ZM634.091 49.57C632.575 49.57 631.318 49.0933 630.321 48.14C629.368 47.1867 628.891 46.0383 628.891 44.695C628.891 43.3083 629.368 42.16 630.321 41.25C631.318 40.2967 632.575 39.82 634.091 39.82C635.608 39.82 636.843 40.275 637.796 41.185C638.793 42.0517 639.291 43.1567 639.291 44.5C639.291 45.93 638.815 47.1433 637.861 48.14C636.908 49.0933 635.651 49.57 634.091 49.57ZM333.687 169.455C330.74 169.455 328.118 168.805 325.822 167.505C323.525 166.205 321.705 164.255 320.362 161.655C319.062 159.012 318.412 155.675 318.412 151.645C318.412 147.572 319.083 144.235 320.427 141.635C321.813 139.035 323.655 137.107 325.952 135.85C328.292 134.55 330.87 133.9 333.687 133.9C337.11 133.9 340.122 134.637 342.722 136.11C345.365 137.583 347.445 139.642 348.962 142.285C350.522 144.928 351.302 148.048 351.302 151.645C351.302 155.242 350.522 158.362 348.962 161.005C347.445 163.648 345.365 165.728 342.722 167.245C340.122 168.718 337.11 169.455 333.687 169.455ZM314.447 169V120.77H322.572V142.35L321.922 151.58L322.182 160.81V169H314.447ZM332.777 162.5C334.727 162.5 336.46 162.067 337.977 161.2C339.537 160.333 340.772 159.077 341.682 157.43C342.592 155.783 343.047 153.855 343.047 151.645C343.047 149.392 342.592 147.463 341.682 145.86C340.772 144.213 339.537 142.957 337.977 142.09C336.46 141.223 334.727 140.79 332.777 140.79C330.827 140.79 329.072 141.223 327.512 142.09C325.952 142.957 324.717 144.213 323.807 145.86C322.897 147.463 322.442 149.392 322.442 151.645C322.442 153.855 322.897 155.783 323.807 157.43C324.717 159.077 325.952 160.333 327.512 161.2C329.072 162.067 330.827 162.5 332.777 162.5ZM359.007 169V134.29H367.132V169H359.007ZM363.102 128.57C361.586 128.57 360.329 128.093 359.332 127.14C358.379 126.187 357.902 125.038 357.902 123.695C357.902 122.308 358.379 121.16 359.332 120.25C360.329 119.297 361.586 118.82 363.102 118.82C364.619 118.82 365.854 119.275 366.807 120.185C367.804 121.052 368.302 122.157 368.302 123.5C368.302 124.93 367.826 126.143 366.872 127.14C365.919 128.093 364.662 128.57 363.102 128.57ZM397.036 169.455C394.09 169.455 391.468 168.805 389.171 167.505C386.875 166.205 385.055 164.255 383.711 161.655C382.411 159.012 381.761 155.675 381.761 151.645C381.761 147.572 382.433 144.235 383.776 141.635C385.163 139.035 387.005 137.107 389.301 135.85C391.641 134.55 394.22 133.9 397.036 133.9C400.46 133.9 403.471 134.637 406.071 136.11C408.715 137.583 410.795 139.642 412.311 142.285C413.871 144.928 414.651 148.048 414.651 151.645C414.651 155.242 413.871 158.362 412.311 161.005C410.795 163.648 408.715 165.728 406.071 167.245C403.471 168.718 400.46 169.455 397.036 169.455ZM377.796 169V120.77H385.921V142.35L385.271 151.58L385.531 160.81V169H377.796ZM396.126 162.5C398.076 162.5 399.81 162.067 401.326 161.2C402.886 160.333 404.121 159.077 405.031 157.43C405.941 155.783 406.396 153.855 406.396 151.645C406.396 149.392 405.941 147.463 405.031 145.86C404.121 144.213 402.886 142.957 401.326 142.09C399.81 141.223 398.076 140.79 396.126 140.79C394.176 140.79 392.421 141.223 390.861 142.09C389.301 142.957 388.066 144.213 387.156 145.86C386.246 147.463 385.791 149.392 385.791 151.645C385.791 153.855 386.246 155.783 387.156 157.43C388.066 159.077 389.301 160.333 390.861 161.2C392.421 162.067 394.176 162.5 396.126 162.5ZM422.357 169V120.77H430.482V169H422.357ZM441.146 169V134.29H449.271V169H441.146ZM445.241 128.57C443.724 128.57 442.468 128.093 441.471 127.14C440.518 126.187 440.041 125.038 440.041 123.695C440.041 122.308 440.518 121.16 441.471 120.25C442.468 119.297 443.724 118.82 445.241 118.82C446.758 118.82 447.993 119.275 448.946 120.185C449.943 121.052 450.441 122.157 450.441 123.5C450.441 124.93 449.964 126.143 449.011 127.14C448.058 128.093 446.801 128.57 445.241 128.57ZM475.535 169.455C471.982 169.455 468.818 168.697 466.045 167.18C463.272 165.62 461.083 163.497 459.48 160.81C457.877 158.123 457.075 155.068 457.075 151.645C457.075 148.178 457.877 145.123 459.48 142.48C461.083 139.793 463.272 137.692 466.045 136.175C468.818 134.658 471.982 133.9 475.535 133.9C479.132 133.9 482.317 134.658 485.09 136.175C487.907 137.692 490.095 139.772 491.655 142.415C493.258 145.058 494.06 148.135 494.06 151.645C494.06 155.068 493.258 158.123 491.655 160.81C490.095 163.497 487.907 165.62 485.09 167.18C482.317 168.697 479.132 169.455 475.535 169.455ZM475.535 162.5C477.528 162.5 479.305 162.067 480.865 161.2C482.425 160.333 483.638 159.077 484.505 157.43C485.415 155.783 485.87 153.855 485.87 151.645C485.87 149.392 485.415 147.463 484.505 145.86C483.638 144.213 482.425 142.957 480.865 142.09C479.305 141.223 477.55 140.79 475.6 140.79C473.607 140.79 471.83 141.223 470.27 142.09C468.753 142.957 467.54 144.213 466.63 145.86C465.72 147.463 465.265 149.392 465.265 151.645C465.265 153.855 465.72 155.783 466.63 157.43C467.54 159.077 468.753 160.333 470.27 161.2C471.83 162.067 473.585 162.5 475.535 162.5ZM514.895 169.455C511.081 169.455 508.135 168.48 506.055 166.53C503.975 164.537 502.935 161.612 502.935 157.755V126.62H511.06V157.56C511.06 159.207 511.471 160.485 512.295 161.395C513.161 162.305 514.353 162.76 515.87 162.76C517.69 162.76 519.206 162.283 520.42 161.33L522.695 167.115C521.741 167.895 520.571 168.48 519.185 168.87C517.798 169.26 516.368 169.455 514.895 169.455ZM497.215 141.05V134.55H520.355V141.05H497.215ZM544.551 169.455C540.694 169.455 537.314 168.697 534.411 167.18C531.551 165.62 529.319 163.497 527.716 160.81C526.156 158.123 525.376 155.068 525.376 151.645C525.376 148.178 526.134 145.123 527.651 142.48C529.211 139.793 531.334 137.692 534.021 136.175C536.751 134.658 539.849 133.9 543.316 133.9C546.696 133.9 549.707 134.637 552.351 136.11C554.994 137.583 557.074 139.663 558.591 142.35C560.107 145.037 560.866 148.2 560.866 151.84C560.866 152.187 560.844 152.577 560.801 153.01C560.801 153.443 560.779 153.855 560.736 154.245H531.811V148.85H556.446L553.261 150.54C553.304 148.547 552.892 146.792 552.026 145.275C551.159 143.758 549.967 142.567 548.451 141.7C546.977 140.833 545.266 140.4 543.316 140.4C541.322 140.4 539.567 140.833 538.051 141.7C536.577 142.567 535.407 143.78 534.541 145.34C533.717 146.857 533.306 148.655 533.306 150.735V152.035C533.306 154.115 533.782 155.957 534.736 157.56C535.689 159.163 537.032 160.398 538.766 161.265C540.499 162.132 542.492 162.565 544.746 162.565C546.696 162.565 548.451 162.262 550.011 161.655C551.571 161.048 552.957 160.095 554.171 158.795L558.526 163.8C556.966 165.62 554.994 167.028 552.611 168.025C550.271 168.978 547.584 169.455 544.551 169.455ZM575.3 161.265L575.495 151.06L593.63 134.29H603.38L587.975 149.76L583.685 153.335L575.3 161.265ZM568.67 169V120.77H576.795V169H568.67ZM594.865 169L582.19 153.335L587.325 146.835L604.745 169H594.865ZM630.744 169V161.98L630.289 160.485V148.2C630.289 145.817 629.574 143.975 628.144 142.675C626.714 141.332 624.547 140.66 621.644 140.66C619.694 140.66 617.765 140.963 615.859 141.57C613.995 142.177 612.414 143.022 611.114 144.105L607.929 138.19C609.792 136.76 612.002 135.698 614.559 135.005C617.159 134.268 619.845 133.9 622.619 133.9C627.645 133.9 631.524 135.113 634.254 137.54C637.027 139.923 638.414 143.628 638.414 148.655V169H630.744ZM619.824 169.455C617.224 169.455 614.949 169.022 612.999 168.155C611.049 167.245 609.532 166.01 608.449 164.45C607.409 162.847 606.889 161.048 606.889 159.055C606.889 157.105 607.344 155.35 608.254 153.79C609.207 152.23 610.745 150.995 612.869 150.085C614.992 149.175 617.809 148.72 621.319 148.72H631.394V154.115H621.904C619.13 154.115 617.267 154.57 616.314 155.48C615.36 156.347 614.884 157.43 614.884 158.73C614.884 160.203 615.469 161.373 616.639 162.24C617.809 163.107 619.434 163.54 621.514 163.54C623.507 163.54 625.284 163.085 626.844 162.175C628.447 161.265 629.595 159.922 630.289 158.145L631.654 163.02C630.874 165.057 629.465 166.638 627.429 167.765C625.435 168.892 622.9 169.455 619.824 169.455ZM648.841 169V134.29H656.576V143.845L655.666 141.05C656.706 138.71 658.331 136.933 660.541 135.72C662.795 134.507 665.59 133.9 668.926 133.9V141.635C668.58 141.548 668.255 141.505 667.951 141.505C667.648 141.462 667.345 141.44 667.041 141.44C663.965 141.44 661.516 142.35 659.696 144.17C657.876 145.947 656.966 148.612 656.966 152.165V169H648.841ZM673.276 169V163.865L694.661 137.995L696.156 140.79H673.666V134.29H702.656V139.425L681.271 165.295L679.646 162.5H703.241V169H673.276ZM732.116 169V161.98L731.661 160.485V148.2C731.661 145.817 730.946 143.975 729.516 142.675C728.086 141.332 725.919 140.66 723.016 140.66C721.066 140.66 719.138 140.963 717.231 141.57C715.368 142.177 713.786 143.022 712.486 144.105L709.301 138.19C711.164 136.76 713.374 135.698 715.931 135.005C718.531 134.268 721.218 133.9 723.991 133.9C729.018 133.9 732.896 135.113 735.626 137.54C738.399 139.923 739.786 143.628 739.786 148.655V169H732.116ZM721.196 169.455C718.596 169.455 716.321 169.022 714.371 168.155C712.421 167.245 710.904 166.01 709.821 164.45C708.781 162.847 708.261 161.048 708.261 159.055C708.261 157.105 708.716 155.35 709.626 153.79C710.579 152.23 712.118 150.995 714.241 150.085C716.364 149.175 719.181 148.72 722.691 148.72H732.766V154.115H723.276C720.503 154.115 718.639 154.57 717.686 155.48C716.733 156.347 716.256 157.43 716.256 158.73C716.256 160.203 716.841 161.373 718.011 162.24C719.181 163.107 720.806 163.54 722.886 163.54C724.879 163.54 726.656 163.085 728.216 162.175C729.819 161.265 730.968 159.922 731.661 158.145L733.026 163.02C732.246 165.057 730.838 166.638 728.801 167.765C726.808 168.892 724.273 169.455 721.196 169.455Z" fill="#286275"/>
<circle cx="209.466" cy="90.4559" r="73.4559" fill="#0FC9D7"/>
<circle cx="102.456" cy="128.544" r="72.9559" fill="#286275" stroke="#286275"/>
<path d="M69.4405 135.173C68.1032 135.173 66.9625 134.72 66.0185 133.816C65.0745 132.872 64.6025 131.692 64.6025 130.276C64.6025 128.781 65.0745 127.601 66.0185 126.736C66.9625 125.831 68.1032 125.379 69.4405 125.379C70.7778 125.379 71.9185 125.831 72.8625 126.736C73.8065 127.601 74.2785 128.781 74.2785 130.276C74.2785 131.692 73.8065 132.872 72.8625 133.816C71.9185 134.72 70.7778 135.173 69.4405 135.173ZM101.545 135.173C100.207 135.173 99.0668 134.72 98.1228 133.816C97.1788 132.872 96.7068 131.692 96.7068 130.276C96.7068 128.781 97.1788 127.601 98.1228 126.736C99.0668 125.831 100.207 125.379 101.545 125.379C102.882 125.379 104.023 125.831 104.967 126.736C105.911 127.601 106.383 128.781 106.383 130.276C106.383 131.692 105.911 132.872 104.967 133.816C104.023 134.72 102.882 135.173 101.545 135.173ZM133.649 135.173C132.312 135.173 131.171 134.72 130.227 133.816C129.283 132.872 128.811 131.692 128.811 130.276C128.811 128.781 129.283 127.601 130.227 126.736C131.171 125.831 132.312 125.379 133.649 125.379C134.986 125.379 136.127 125.831 137.071 126.736C138.015 127.601 138.487 128.781 138.487 130.276C138.487 131.692 138.015 132.872 137.071 133.816C136.127 134.72 134.986 135.173 133.649 135.173Z" fill="white"/>
<path d="M31.0168 195.975L43.6154 156.449L71.7127 187.918L31.0168 195.975Z" fill="#286275"/>
<path d="M201.928 104.735C201.928 102.022 202.368 99.6382 203.248 97.5849C204.128 95.5315 205.264 93.6982 206.658 92.0849C208.051 90.4715 209.518 88.9682 211.058 87.5749C212.671 86.1815 214.174 84.8249 215.568 83.5049C216.961 82.1849 218.098 80.7915 218.978 79.3249C219.858 77.8582 220.298 76.2082 220.298 74.3749C220.298 71.2949 219.051 68.8015 216.558 66.8949C214.064 64.9882 210.728 64.0349 206.548 64.0349C202.514 64.0349 198.994 64.7682 195.988 66.2349C193.054 67.7015 190.598 69.7915 188.618 72.5049L177.948 65.5749C181.028 61.3949 185.061 58.1315 190.048 55.7849C195.034 53.3649 200.938 52.1549 207.758 52.1549C213.111 52.1549 217.804 52.9615 221.838 54.5749C225.871 56.1149 229.024 58.3882 231.298 61.3949C233.571 64.3282 234.708 67.9215 234.708 72.1749C234.708 75.1082 234.231 77.6749 233.278 79.8749C232.398 82.0749 231.224 84.0182 229.758 85.7049C228.364 87.3182 226.861 88.8582 225.248 90.3249C223.634 91.7182 222.094 93.1115 220.628 94.5049C219.234 95.8982 218.098 97.4015 217.218 99.0149C216.338 100.628 215.898 102.535 215.898 104.735H201.928ZM208.968 131.025C206.401 131.025 204.274 130.182 202.588 128.495C200.974 126.808 200.168 124.792 200.168 122.445C200.168 120.098 200.974 118.118 202.588 116.505C204.274 114.818 206.401 113.975 208.968 113.975C211.534 113.975 213.624 114.818 215.238 116.505C216.851 118.118 217.658 120.098 217.658 122.445C217.658 124.792 216.851 126.808 215.238 128.495C213.624 130.182 211.534 131.025 208.968 131.025Z" fill="white"/>
<path d="M270.668 169.903L231.288 156.855L263.075 129.118L270.668 169.903Z" fill="#0FC9D7"/>
</svg>
