<svg width="1027" height="221" viewBox="0 0 1027 221" fill="none" xmlns="http://www.w3.org/2000/svg">
<rect x="0.5" y="0.5" width="1026" height="220" rx="32.5" fill="white" stroke="#0FC9D7"/>
<path d="M307.807 128V122.345L337.187 86.465L338.162 89.65H308.262V82.5H345.767V88.155L316.387 124.035L315.347 120.85H346.612V128H307.807ZM375.021 128V120.98L374.566 119.485V107.2C374.566 104.817 373.851 102.975 372.421 101.675C370.991 100.332 368.824 99.66 365.921 99.66C363.971 99.66 362.042 99.9633 360.136 100.57C358.272 101.177 356.691 102.022 355.391 103.105L352.206 97.19C354.069 95.76 356.279 94.6983 358.836 94.005C361.436 93.2683 364.122 92.9 366.896 92.9C371.922 92.9 375.801 94.1133 378.531 96.54C381.304 98.9233 382.691 102.628 382.691 107.655V128H375.021ZM364.101 128.455C361.501 128.455 359.226 128.022 357.276 127.155C355.326 126.245 353.809 125.01 352.726 123.45C351.686 121.847 351.166 120.048 351.166 118.055C351.166 116.105 351.621 114.35 352.531 112.79C353.484 111.23 355.022 109.995 357.146 109.085C359.269 108.175 362.086 107.72 365.596 107.72H375.671V113.115H366.181C363.407 113.115 361.544 113.57 360.591 114.48C359.637 115.347 359.161 116.43 359.161 117.73C359.161 119.203 359.746 120.373 360.916 121.24C362.086 122.107 363.711 122.54 365.791 122.54C367.784 122.54 369.561 122.085 371.121 121.175C372.724 120.265 373.872 118.922 374.566 117.145L375.931 122.02C375.151 124.057 373.742 125.638 371.706 126.765C369.712 127.892 367.177 128.455 364.101 128.455ZM412.358 128.455C409.541 128.455 406.963 127.805 404.623 126.505C402.326 125.205 400.485 123.255 399.098 120.655C397.755 118.012 397.083 114.675 397.083 110.645C397.083 106.572 397.733 103.235 399.033 100.635C400.376 98.035 402.196 96.1067 404.493 94.85C406.79 93.55 409.411 92.9 412.358 92.9C415.781 92.9 418.793 93.6367 421.393 95.11C424.036 96.5833 426.116 98.6417 427.633 101.285C429.193 103.928 429.973 107.048 429.973 110.645C429.973 114.242 429.193 117.383 427.633 120.07C426.116 122.713 424.036 124.772 421.393 126.245C418.793 127.718 415.781 128.455 412.358 128.455ZM393.118 140.61V93.29H400.853V101.48L400.593 110.71L401.243 119.94V140.61H393.118ZM411.448 121.5C413.398 121.5 415.131 121.067 416.648 120.2C418.208 119.333 419.443 118.077 420.353 116.43C421.263 114.783 421.718 112.855 421.718 110.645C421.718 108.392 421.263 106.463 420.353 104.86C419.443 103.213 418.208 101.957 416.648 101.09C415.131 100.223 413.398 99.79 411.448 99.79C409.498 99.79 407.743 100.223 406.183 101.09C404.623 101.957 403.388 103.213 402.478 104.86C401.568 106.463 401.113 108.392 401.113 110.645C401.113 112.855 401.568 114.783 402.478 116.43C403.388 118.077 404.623 119.333 406.183 120.2C407.743 121.067 409.498 121.5 411.448 121.5ZM439.586 141.065C437.896 141.065 436.206 140.783 434.516 140.22C432.826 139.657 431.418 138.877 430.291 137.88L433.541 131.9C434.365 132.637 435.296 133.222 436.336 133.655C437.376 134.088 438.438 134.305 439.521 134.305C440.995 134.305 442.186 133.937 443.096 133.2C444.006 132.463 444.851 131.228 445.631 129.495L447.646 124.945L448.296 123.97L461.426 93.29H469.226L452.976 130.795C451.893 133.395 450.68 135.453 449.336 136.97C448.036 138.487 446.563 139.548 444.916 140.155C443.313 140.762 441.536 141.065 439.586 141.065ZM446.736 129.235L431.071 93.29H439.521L452.261 123.255L446.736 129.235ZM488.322 128.455C484.508 128.455 481.562 127.48 479.482 125.53C477.402 123.537 476.362 120.612 476.362 116.755V85.62H484.487V116.56C484.487 118.207 484.898 119.485 485.722 120.395C486.588 121.305 487.78 121.76 489.297 121.76C491.117 121.76 492.633 121.283 493.847 120.33L496.122 126.115C495.168 126.895 493.998 127.48 492.612 127.87C491.225 128.26 489.795 128.455 488.322 128.455ZM470.642 100.05V93.55H493.782V100.05H470.642ZM524.191 128V120.98L523.736 119.485V107.2C523.736 104.817 523.021 102.975 521.591 101.675C520.161 100.332 517.994 99.66 515.091 99.66C513.141 99.66 511.212 99.9633 509.306 100.57C507.442 101.177 505.861 102.022 504.561 103.105L501.376 97.19C503.239 95.76 505.449 94.6983 508.006 94.005C510.606 93.2683 513.292 92.9 516.066 92.9C521.092 92.9 524.971 94.1133 527.701 96.54C530.474 98.9233 531.861 102.628 531.861 107.655V128H524.191ZM513.271 128.455C510.671 128.455 508.396 128.022 506.446 127.155C504.496 126.245 502.979 125.01 501.896 123.45C500.856 121.847 500.336 120.048 500.336 118.055C500.336 116.105 500.791 114.35 501.701 112.79C502.654 111.23 504.192 109.995 506.316 109.085C508.439 108.175 511.256 107.72 514.766 107.72H524.841V113.115H515.351C512.577 113.115 510.714 113.57 509.761 114.48C508.807 115.347 508.331 116.43 508.331 117.73C508.331 119.203 508.916 120.373 510.086 121.24C511.256 122.107 512.881 122.54 514.961 122.54C516.954 122.54 518.731 122.085 520.291 121.175C521.894 120.265 523.042 118.922 523.736 117.145L525.101 122.02C524.321 124.057 522.912 125.638 520.876 126.765C518.882 127.892 516.347 128.455 513.271 128.455ZM538.713 141.065C537.196 141.065 535.766 140.892 534.423 140.545C533.036 140.242 531.866 139.743 530.913 139.05L533.253 133.005C534.51 133.915 536.091 134.37 537.998 134.37C539.471 134.37 540.62 133.893 541.443 132.94C542.266 132.03 542.678 130.665 542.678 128.845V93.29H550.803V128.65C550.803 132.463 549.741 135.475 547.618 137.685C545.538 139.938 542.57 141.065 538.713 141.065ZM546.708 87.57C545.191 87.57 543.935 87.0933 542.938 86.14C541.985 85.1867 541.508 84.0383 541.508 82.695C541.508 81.3083 541.985 80.16 542.938 79.25C543.935 78.2967 545.191 77.82 546.708 77.82C548.225 77.82 549.46 78.275 550.413 79.185C551.41 80.0517 551.908 81.1567 551.908 82.5C551.908 83.93 551.431 85.1433 550.478 86.14C549.525 87.0933 548.268 87.57 546.708 87.57ZM598.662 128.455C595.715 128.455 593.093 127.805 590.797 126.505C588.5 125.205 586.68 123.255 585.337 120.655C584.037 118.012 583.387 114.675 583.387 110.645C583.387 106.572 584.058 103.235 585.402 100.635C586.788 98.035 588.63 96.1067 590.927 94.85C593.267 93.55 595.845 92.9 598.662 92.9C602.085 92.9 605.097 93.6367 607.697 95.11C610.34 96.5833 612.42 98.6417 613.937 101.285C615.497 103.928 616.277 107.048 616.277 110.645C616.277 114.242 615.497 117.362 613.937 120.005C612.42 122.648 610.34 124.728 607.697 126.245C605.097 127.718 602.085 128.455 598.662 128.455ZM579.422 128V79.77H587.547V101.35L586.897 110.58L587.157 119.81V128H579.422ZM597.752 121.5C599.702 121.5 601.435 121.067 602.952 120.2C604.512 119.333 605.747 118.077 606.657 116.43C607.567 114.783 608.022 112.855 608.022 110.645C608.022 108.392 607.567 106.463 606.657 104.86C605.747 103.213 604.512 101.957 602.952 101.09C601.435 100.223 599.702 99.79 597.752 99.79C595.802 99.79 594.047 100.223 592.487 101.09C590.927 101.957 589.692 103.213 588.782 104.86C587.872 106.463 587.417 108.392 587.417 110.645C587.417 112.855 587.872 114.783 588.782 116.43C589.692 118.077 590.927 119.333 592.487 120.2C594.047 121.067 595.802 121.5 597.752 121.5ZM623.982 128V93.29H632.107V128H623.982ZM628.077 87.57C626.561 87.57 625.304 87.0933 624.307 86.14C623.354 85.1867 622.877 84.0383 622.877 82.695C622.877 81.3083 623.354 80.16 624.307 79.25C625.304 78.2967 626.561 77.82 628.077 77.82C629.594 77.82 630.829 78.275 631.782 79.185C632.779 80.0517 633.277 81.1567 633.277 82.5C633.277 83.93 632.801 85.1433 631.847 86.14C630.894 87.0933 629.637 87.57 628.077 87.57ZM662.011 128.455C659.065 128.455 656.443 127.805 654.146 126.505C651.85 125.205 650.03 123.255 648.686 120.655C647.386 118.012 646.736 114.675 646.736 110.645C646.736 106.572 647.408 103.235 648.751 100.635C650.138 98.035 651.98 96.1067 654.276 94.85C656.616 93.55 659.195 92.9 662.011 92.9C665.435 92.9 668.446 93.6367 671.046 95.11C673.69 96.5833 675.77 98.6417 677.286 101.285C678.846 103.928 679.626 107.048 679.626 110.645C679.626 114.242 678.846 117.362 677.286 120.005C675.77 122.648 673.69 124.728 671.046 126.245C668.446 127.718 665.435 128.455 662.011 128.455ZM642.771 128V79.77H650.896V101.35L650.246 110.58L650.506 119.81V128H642.771ZM661.101 121.5C663.051 121.5 664.785 121.067 666.301 120.2C667.861 119.333 669.096 118.077 670.006 116.43C670.916 114.783 671.371 112.855 671.371 110.645C671.371 108.392 670.916 106.463 670.006 104.86C669.096 103.213 667.861 101.957 666.301 101.09C664.785 100.223 663.051 99.79 661.101 99.79C659.151 99.79 657.396 100.223 655.836 101.09C654.276 101.957 653.041 103.213 652.131 104.86C651.221 106.463 650.766 108.392 650.766 110.645C650.766 112.855 651.221 114.783 652.131 116.43C653.041 118.077 654.276 119.333 655.836 120.2C657.396 121.067 659.151 121.5 661.101 121.5ZM687.332 128V79.77H695.457V128H687.332ZM706.121 128V93.29H714.246V128H706.121ZM710.216 87.57C708.699 87.57 707.443 87.0933 706.446 86.14C705.493 85.1867 705.016 84.0383 705.016 82.695C705.016 81.3083 705.493 80.16 706.446 79.25C707.443 78.2967 708.699 77.82 710.216 77.82C711.733 77.82 712.968 78.275 713.921 79.185C714.918 80.0517 715.416 81.1567 715.416 82.5C715.416 83.93 714.939 85.1433 713.986 86.14C713.033 87.0933 711.776 87.57 710.216 87.57ZM740.51 128.455C736.957 128.455 733.793 127.697 731.02 126.18C728.247 124.62 726.058 122.497 724.455 119.81C722.852 117.123 722.05 114.068 722.05 110.645C722.05 107.178 722.852 104.123 724.455 101.48C726.058 98.7933 728.247 96.6917 731.02 95.175C733.793 93.6583 736.957 92.9 740.51 92.9C744.107 92.9 747.292 93.6583 750.065 95.175C752.882 96.6917 755.07 98.7717 756.63 101.415C758.233 104.058 759.035 107.135 759.035 110.645C759.035 114.068 758.233 117.123 756.63 119.81C755.07 122.497 752.882 124.62 750.065 126.18C747.292 127.697 744.107 128.455 740.51 128.455ZM740.51 121.5C742.503 121.5 744.28 121.067 745.84 120.2C747.4 119.333 748.613 118.077 749.48 116.43C750.39 114.783 750.845 112.855 750.845 110.645C750.845 108.392 750.39 106.463 749.48 104.86C748.613 103.213 747.4 101.957 745.84 101.09C744.28 100.223 742.525 99.79 740.575 99.79C738.582 99.79 736.805 100.223 735.245 101.09C733.728 101.957 732.515 103.213 731.605 104.86C730.695 106.463 730.24 108.392 730.24 110.645C730.24 112.855 730.695 114.783 731.605 116.43C732.515 118.077 733.728 119.333 735.245 120.2C736.805 121.067 738.56 121.5 740.51 121.5ZM779.87 128.455C776.056 128.455 773.11 127.48 771.03 125.53C768.95 123.537 767.91 120.612 767.91 116.755V85.62H776.035V116.56C776.035 118.207 776.446 119.485 777.27 120.395C778.136 121.305 779.328 121.76 780.845 121.76C782.665 121.76 784.181 121.283 785.395 120.33L787.67 126.115C786.716 126.895 785.546 127.48 784.16 127.87C782.773 128.26 781.343 128.455 779.87 128.455ZM762.19 100.05V93.55H785.33V100.05H762.19ZM809.526 128.455C805.669 128.455 802.289 127.697 799.386 126.18C796.526 124.62 794.294 122.497 792.691 119.81C791.131 117.123 790.351 114.068 790.351 110.645C790.351 107.178 791.109 104.123 792.626 101.48C794.186 98.7933 796.309 96.6917 798.996 95.175C801.726 93.6583 804.824 92.9 808.291 92.9C811.671 92.9 814.683 93.6367 817.326 95.11C819.969 96.5833 822.049 98.6633 823.566 101.35C825.083 104.037 825.841 107.2 825.841 110.84C825.841 111.187 825.819 111.577 825.776 112.01C825.776 112.443 825.754 112.855 825.711 113.245H796.786V107.85H821.421L818.236 109.54C818.279 107.547 817.868 105.792 817.001 104.275C816.134 102.758 814.943 101.567 813.426 100.7C811.953 99.8333 810.241 99.4 808.291 99.4C806.298 99.4 804.543 99.8333 803.026 100.7C801.553 101.567 800.383 102.78 799.516 104.34C798.693 105.857 798.281 107.655 798.281 109.735V111.035C798.281 113.115 798.758 114.957 799.711 116.56C800.664 118.163 802.008 119.398 803.741 120.265C805.474 121.132 807.468 121.565 809.721 121.565C811.671 121.565 813.426 121.262 814.986 120.655C816.546 120.048 817.933 119.095 819.146 117.795L823.501 122.8C821.941 124.62 819.969 126.028 817.586 127.025C815.246 127.978 812.559 128.455 809.526 128.455ZM840.275 120.265L840.47 110.06L858.605 93.29H868.355L852.95 108.76L848.66 112.335L840.275 120.265ZM833.645 128V79.77H841.77V128H833.645ZM859.84 128L847.165 112.335L852.3 105.835L869.72 128H859.84ZM895.719 128V120.98L895.264 119.485V107.2C895.264 104.817 894.549 102.975 893.119 101.675C891.689 100.332 889.522 99.66 886.619 99.66C884.669 99.66 882.741 99.9633 880.834 100.57C878.971 101.177 877.389 102.022 876.089 103.105L872.904 97.19C874.767 95.76 876.977 94.6983 879.534 94.005C882.134 93.2683 884.821 92.9 887.594 92.9C892.621 92.9 896.499 94.1133 899.229 96.54C902.002 98.9233 903.389 102.628 903.389 107.655V128H895.719ZM884.799 128.455C882.199 128.455 879.924 128.022 877.974 127.155C876.024 126.245 874.507 125.01 873.424 123.45C872.384 121.847 871.864 120.048 871.864 118.055C871.864 116.105 872.319 114.35 873.229 112.79C874.182 111.23 875.721 109.995 877.844 109.085C879.967 108.175 882.784 107.72 886.294 107.72H896.369V113.115H886.879C884.106 113.115 882.242 113.57 881.289 114.48C880.336 115.347 879.859 116.43 879.859 117.73C879.859 119.203 880.444 120.373 881.614 121.24C882.784 122.107 884.409 122.54 886.489 122.54C888.482 122.54 890.259 122.085 891.819 121.175C893.422 120.265 894.571 118.922 895.264 117.145L896.629 122.02C895.849 124.057 894.441 125.638 892.404 126.765C890.411 127.892 887.876 128.455 884.799 128.455ZM913.816 128V93.29H921.551V102.845L920.641 100.05C921.681 97.71 923.306 95.9333 925.516 94.72C927.77 93.5067 930.565 92.9 933.901 92.9V100.635C933.555 100.548 933.23 100.505 932.926 100.505C932.623 100.462 932.32 100.44 932.016 100.44C928.94 100.44 926.491 101.35 924.671 103.17C922.851 104.947 921.941 107.612 921.941 111.165V128H913.816ZM938.251 128V122.865L959.636 96.995L961.131 99.79H938.641V93.29H967.631V98.425L946.246 124.295L944.621 121.5H968.216V128H938.251ZM997.091 128V120.98L996.636 119.485V107.2C996.636 104.817 995.921 102.975 994.491 101.675C993.061 100.332 990.894 99.66 987.991 99.66C986.041 99.66 984.113 99.9633 982.206 100.57C980.343 101.177 978.761 102.022 977.461 103.105L974.276 97.19C976.139 95.76 978.349 94.6983 980.906 94.005C983.506 93.2683 986.193 92.9 988.966 92.9C993.993 92.9 997.871 94.1133 1000.6 96.54C1003.37 98.9233 1004.76 102.628 1004.76 107.655V128H997.091ZM986.171 128.455C983.571 128.455 981.296 128.022 979.346 127.155C977.396 126.245 975.879 125.01 974.796 123.45C973.756 121.847 973.236 120.048 973.236 118.055C973.236 116.105 973.691 114.35 974.601 112.79C975.554 111.23 977.093 109.995 979.216 109.085C981.339 108.175 984.156 107.72 987.666 107.72H997.741V113.115H988.251C985.478 113.115 983.614 113.57 982.661 114.48C981.708 115.347 981.231 116.43 981.231 117.73C981.231 119.203 981.816 120.373 982.986 121.24C984.156 122.107 985.781 122.54 987.861 122.54C989.854 122.54 991.631 122.085 993.191 121.175C994.794 120.265 995.943 118.922 996.636 117.145L998.001 122.02C997.221 124.057 995.813 125.638 993.776 126.765C991.783 127.892 989.248 128.455 986.171 128.455Z" fill="#286275"/>
<circle cx="209.466" cy="88.4559" r="73.4559" fill="#0FC9D7"/>
<circle cx="102.456" cy="126.544" r="72.9559" fill="#286275" stroke="#286275"/>
<path d="M69.4405 133.173C68.1032 133.173 66.9625 132.72 66.0185 131.816C65.0745 130.872 64.6025 129.692 64.6025 128.276C64.6025 126.781 65.0745 125.601 66.0185 124.736C66.9625 123.831 68.1032 123.379 69.4405 123.379C70.7778 123.379 71.9185 123.831 72.8625 124.736C73.8065 125.601 74.2785 126.781 74.2785 128.276C74.2785 129.692 73.8065 130.872 72.8625 131.816C71.9185 132.72 70.7778 133.173 69.4405 133.173ZM101.545 133.173C100.207 133.173 99.0668 132.72 98.1228 131.816C97.1788 130.872 96.7068 129.692 96.7068 128.276C96.7068 126.781 97.1788 125.601 98.1228 124.736C99.0668 123.831 100.207 123.379 101.545 123.379C102.882 123.379 104.023 123.831 104.967 124.736C105.911 125.601 106.383 126.781 106.383 128.276C106.383 129.692 105.911 130.872 104.967 131.816C104.023 132.72 102.882 133.173 101.545 133.173ZM133.649 133.173C132.312 133.173 131.171 132.72 130.227 131.816C129.283 130.872 128.811 129.692 128.811 128.276C128.811 126.781 129.283 125.601 130.227 124.736C131.171 123.831 132.312 123.379 133.649 123.379C134.986 123.379 136.127 123.831 137.071 124.736C138.015 125.601 138.487 126.781 138.487 128.276C138.487 129.692 138.015 130.872 137.071 131.816C136.127 132.72 134.986 133.173 133.649 133.173Z" fill="white"/>
<path d="M31.0168 195.975L43.6154 156.449L71.7127 187.918L31.0168 195.975Z" fill="#286275"/>
<path d="M201.928 104.735C201.928 102.022 202.368 99.6382 203.248 97.5849C204.128 95.5315 205.264 93.6982 206.658 92.0849C208.051 90.4715 209.518 88.9682 211.058 87.5749C212.671 86.1815 214.174 84.8249 215.568 83.5049C216.961 82.1849 218.098 80.7915 218.978 79.3249C219.858 77.8582 220.298 76.2082 220.298 74.3749C220.298 71.2949 219.051 68.8015 216.558 66.8949C214.064 64.9882 210.728 64.0349 206.548 64.0349C202.514 64.0349 198.994 64.7682 195.988 66.2349C193.054 67.7015 190.598 69.7915 188.618 72.5049L177.948 65.5749C181.028 61.3949 185.061 58.1315 190.048 55.7849C195.034 53.3649 200.938 52.1549 207.758 52.1549C213.111 52.1549 217.804 52.9615 221.838 54.5749C225.871 56.1149 229.024 58.3882 231.298 61.3949C233.571 64.3282 234.708 67.9215 234.708 72.1749C234.708 75.1082 234.231 77.6749 233.278 79.8749C232.398 82.0749 231.224 84.0182 229.758 85.7049C228.364 87.3182 226.861 88.8582 225.248 90.3249C223.634 91.7182 222.094 93.1115 220.628 94.5049C219.234 95.8982 218.098 97.4015 217.218 99.0149C216.338 100.628 215.898 102.535 215.898 104.735H201.928ZM208.968 131.025C206.401 131.025 204.274 130.182 202.588 128.495C200.974 126.808 200.168 124.792 200.168 122.445C200.168 120.098 200.974 118.118 202.588 116.505C204.274 114.818 206.401 113.975 208.968 113.975C211.534 113.975 213.624 114.818 215.238 116.505C216.851 118.118 217.658 120.098 217.658 122.445C217.658 124.792 216.851 126.808 215.238 128.495C213.624 130.182 211.534 131.025 208.968 131.025Z" fill="white"/>
<path d="M270.668 169.903L231.288 156.855L263.075 129.118L270.668 169.903Z" fill="#0FC9D7"/>
</svg>
